<?xml version="1.0" standalone="no"?>
<!DOCTYPE svg PUBLIC "-//W3C//DTD SVG 1.1//EN" "http://www.w3.org/Graphics/SVG/1.1/DTD/svg11.dtd"><svg t="1640604293190"
    class="icon" viewBox="0 0 1024 1024" version="1.1" xmlns="http://www.w3.org/2000/svg" p-id="7128"
    xmlns:xlink="http://www.w3.org/1999/xlink" width="200" height="200">
    <defs>
        <style type="text/css"></style>
    </defs>
    <path
        d="M282.8 672.7h58.3V353.4h-58.3l-65 56.6v62.7l65-56.5zM626.8 620.3H503.5l89.2-103.6c22-25.6 34.1-42.2 34.1-73.1 0-57.4-40.4-92.8-96.9-92.8-54.7 0-97.3 35-97.3 93.3h58.3c0-30.9 19.7-40.8 39-40.8 24.7 0 38.6 16.1 38.6 39.9 0 14.8-4.9 24.7-16.6 38.6L432.6 620.3v52.5h194.2v-52.5zM761.3 623c-22.9 0-42.6-13-43.5-41.7h-58.3c0.9 66.8 49.8 94.2 101.8 94.2 54.7 0 101.4-31.4 101.4-95.1 0-38.6-18.4-60.5-41.3-72.7 21.1-11.2 36.8-30.9 36.8-65.5 0-53.8-40.8-91.5-97.3-91.5-53.8 0-96.4 34.1-97.8 91h58.3c1.3-24.2 17.5-38.6 39.5-38.6 21.1 0 39 13.9 39 40.8 0 22.4-12.1 39.9-40.4 39.9H751v50.7h8.5c28.7 0 44.8 17.5 44.8 43.9 0.1 28.9-17.9 44.6-43 44.6z"
        fill="#31D0C8" p-id="7129"></path>
    <path
        d="M929.9 160.9H150.6c-22.1 0-40 17.9-40 40v624.4c0 22.1 17.9 40 40 40h779.3c22.1 0 40-17.9 40-40V200.9c0-22.1-18-40-40-40z m-24 640.4H174.6V224.9h731.3v576.4z"
        fill="#31D0C8" p-id="7130"></path>
</svg>